<svg xmlns="http://www.w3.org/2000/svg" xmlns:xlink="http://www.w3.org/1999/xlink" width="180" height="888"><svg width="148" height="148" viewBox="-10 -10 148 148"><circle fill="#C00" cx="64" cy="64" r="59"/><path fill-rule="evenodd" clip-rule="evenodd" fill="#FFF" d="M84.31 64L56.58 38.05l-3.96 3.71L76.39 64 52.62 86.24l3.96 3.71L84.31 64z"/></svg><svg width="102" height="148" viewBox="-10 -10 102 148" y="148"><path fill-rule="evenodd" clip-rule="evenodd" fill="#C00" d="M77 63.99L14 5l-9 8.43L59.01 64 5 114.57l9 8.43 63-58.99-.01-.01z"/></svg><svg width="102" height="148" viewBox="-10 -10 102 148" y="296"><path fill-rule="evenodd" clip-rule="evenodd" fill="#FFF" d="M77 63.99L14 5l-9 8.43L59.01 64 5 114.57l9 8.43 63-58.99-.01-.01z"/></svg><svg width="180" height="148" viewBox="-10 -10 180 148" y="444"><g fill="#777"><path d="M27.41 47.31H5V123h103.91v-17.92h-81.5z"/><path d="M37.67 5v85.23H155V5H37.67zm103.26 75.44H51.74V29.59h89.18v50.85z"/></g></svg><svg width="180" height="148" viewBox="-10 -10 180 148" y="592"><g fill="#FFF"><path d="M27.41 47.31H5V123h103.91v-17.92h-81.5z"/><path d="M37.67 5v85.23H155V5H37.67zm103.26 75.44H51.74V29.59h89.18v50.85z"/></g></svg><svg width="86" height="148" viewBox="-10 -10 86 148" y="740"><path fill-rule="evenodd" clip-rule="evenodd" fill="#FFF" d="M40.9 123V68.85h17.35l2.56-20.96H40.9V34.41c0-6 1.6-10.08 9.84-10.08H61V5.81C59.18 5.56 53.44 5 46.18 5 31.02 5 20.9 14.65 20.9 32.36v15.53H5v20.96h15.9V123h20z"/></svg></svg>