<?xml version="1.0" encoding="utf-8"?>
<!-- Generator: Adobe Illustrator 20.0.0, SVG Export Plug-In . SVG Version: 6.00 Build 0)  -->
<svg version="1.1" id="レイヤー_1" xmlns="http://www.w3.org/2000/svg" xmlns:xlink="http://www.w3.org/1999/xlink" x="0px"
	 y="0px" width="128px" height="128px" viewBox="0 0 128 128" enable-background="new 0 0 128 128" xml:space="preserve">
<path fill="#FFFFFF" d="M86.53,18.97c-18.63-18.63-48.93-18.62-67.56,0c-18.63,18.63-18.63,48.93,0,67.56
	c17.12,17.12,44.09,18.46,62.8,4.1l30.53,30.53c2.45,2.45,6.41,2.45,8.86,0c2.45-2.45,2.45-6.41,0-8.86L90.63,81.77
	C104.98,63.06,103.65,36.09,86.53,18.97z M79.88,79.88c-14.96,14.96-39.3,14.96-54.27,0s-14.96-39.3,0-54.27
	c14.96-14.96,39.3-14.96,54.27,0S94.84,64.92,79.88,79.88z"/>
<g>
</g>
<g>
</g>
<g>
</g>
<g>
</g>
<g>
</g>
<g>
</g>
</svg>
