<svg xmlns="http://www.w3.org/2000/svg" viewBox="0 0 210 110"><title>logo_header</title><path fill="#e60000" d="M64.83 51.66L48.79 67.81V0l16.04 16.14v35.52zm32.07-3.39L80.86 64.41V3.39L96.9 19.54v28.73zm32.07 16.14l-16.03-16.14V19.54l16.03-16.15v61.02zm32.08 3.39l-16.03-16.14V16.14L161.05 0v67.8z"/><path d="M0 84.75h5.24v22.6H0zm41.73 0h-4.14l-7.64 11.22-7.64-11.22h-4.12v22.6h5.23V94.97l6.53 8.7 6.53-8.7v12.38h5.25v-22.6zm12.96 0v16.52c0 6.78-4.62 6.09-4.62 6.09l-.91 2.35c3.65.93 10.73-1.14 10.73-8.49V84.75h-5.2zM76 96.16v-.06a11.59 11.59 0 0 1 11.74-11.73 12.44 12.44 0 0 1 8.84 3.07l-3.15 3.82A8.21 8.21 0 0 0 87.58 89c-3.6 0-6.46 3.2-6.46 7.07v.03c0 4.1 2.82 7.16 6.81 7.16a7.86 7.86 0 0 0 4.64-1.39v-3.2h-5v-4.34h9.76v9.86a14.7 14.7 0 0 1-9.6 3.57c-7 0-11.82-5-11.82-11.59m30.23-11.42h10.27A9.1 9.1 0 0 1 123 87a7.31 7.31 0 0 1 1.92 5.21v.06a7 7 0 0 1-4.82 7l5.51 8.06h-5.79l-4.82-7.19h-3.87v7.22h-5V84.75zm10 11c2.41 0 3.78-1.33 3.78-3.22v-.06c0-2.11-1.47-3.21-3.88-3.21h-4.9v6.49h5zm15.61.41v-.06a12 12 0 0 1 23.9-.07v.07a12 12 0 0 1-23.9.06m18.71 0v-.06a6.84 6.84 0 0 0-6.8-7.14 6.76 6.76 0 0 0-6.72 7.04v.1a6.87 6.87 0 0 0 6.8 7.09 6.74 6.74 0 0 0 6.74-7m12.94 1.51v-13h4.95v12.88c0 3.65 1.82 5.58 4.85 5.58s4.84-1.87 4.84-5.43v-13h5v12.81c0 6.83-3.83 10.18-9.86 10.18s-9.73-3.38-9.73-10M192 84.75h9.19c5.35 0 8.6 3.17 8.6 7.82v.07c0 5.25-4 7.95-9.09 7.95H197v6.77h-5V84.75zm8.87 11.45c2.47 0 3.91-1.54 3.91-3.47v-.07c0-2.2-1.53-3.39-4-3.39H197v6.92h3.9z"/><path fill="none" d="M0 0h210v110H0z"/></svg>