<svg xmlns="http://www.w3.org/2000/svg" xmlns:xlink="http://www.w3.org/1999/xlink" width="148" height="296" viewBox="0 0 148 296"><svg width="148" height="148" viewBox="-10 -10 148 148" id="contact" y="0"><circle fill="#C00" cx="64" cy="64" r="59"></circle><g fill-rule="evenodd" clip-rule="evenodd" fill="#FFF"><path d="M25.41 37.66v7.25l39.76 25.36 37.42-25.36v-7.25zM102.59 79.72V51.86l-17.4 11.79zM25.41 51.86v28.8l18.45-17.03z"></path><path d="M65.17 77.22l-15.84-10.1L25.41 89.2v1.14h77.18v-2.08L79.85 67.27z"></path></g></svg><svg width="148" height="148" viewBox="-10 -10 148 148" id="search" y="148"><path fill="#FFF" d="M86.53 18.97C67.9.34 37.6.35 18.97 18.97.34 37.6.34 67.9 18.97 86.53c17.12 17.12 44.09 18.46 62.8 4.1l30.53 30.53a6.259 6.259 0 0 0 8.86 0 6.259 6.259 0 0 0 0-8.86L90.63 81.77c14.35-18.71 13.02-45.68-4.1-62.8zm-6.65 60.91c-14.96 14.96-39.3 14.96-54.27 0s-14.96-39.3 0-54.27c14.96-14.96 39.3-14.96 54.27 0s14.96 39.31 0 54.27z"></path></svg></svg>